# xmcd
#
# Track frame offsets:
#	183
#	16233
#	34833
#	46758
#	58945
#	74133
#	98333
#	108858
#	123258
#	134583
#	152458
#	165183
#	181458
#	196983
#
# Disc length: 2866 seconds
#
# Revision: 2
# Processed by: cddbd v1.5.1PL2 Copyright (c) Steve Scherf et al.
# Submitted via: audiograbber 1.83.01
#
DISCID=b20b300e
DTITLE=Willy Astor - The Sound of Islands
DYEAR=1994
DGENRE=Instrumental
TTITLE0=Pegasus -Solo-
TTITLE1=Somnambul
TTITLE2=Mrs. Blue Sky -Solo-
TTITLE3=Anuschka
TTITLE4=Höhenflug -Solo-
TTITLE5=Nautilus
TTITLE6=The Sound of Islands
TTITLE7=Ma Cherie
TTITLE8=Leicht Sinnig -Solo-
TTITLE9=Lancelot
TTITLE10=Rifugio
TTITLE11=Panta Rhei
TTITLE12=Einklang -Solo-
TTITLE13=El Cafe
EXTD=YEAR: 1994
EXTT0=
EXTT1=
EXTT2=
EXTT3=
EXTT4=
EXTT5=
EXTT6=
EXTT7=
EXTT8=
EXTT9=
EXTT10=
EXTT11=
EXTT12=
EXTT13=
PLAYORDER=
